<svg aria-hidden="true" style="position: absolute; width: 0; height: 0; overflow: hidden;" version="1.1" xmlns="http://www.w3.org/2000/svg" xmlns:xlink="http://www.w3.org/1999/xlink">
<defs>
<symbol id="icon-picture" viewBox="0 0 34 32">
<path fill="#040000" style="fill: var(--color1, #040000)" d="M7.478 7.991h17.764c0.745 0 1.35 0.604 1.35 1.35v13.426c0 0.745-0.604 1.35-1.35 1.35h-17.764c-0.745 0-1.35-0.604-1.35-1.35v-13.426c0-0.745 0.604-1.35 1.35-1.35z"></path>
<path fill="#fff" style="fill: var(--color2, #fff)" d="M26.538 13.066c-3.069 1.584-6.119 3.177-9.125 4.886-1.269 0.72-3.312-4.166-4.364-4.796-0.63-0.387-1.737 0.702-1.737 0.702l-5.147 4.202c-1.251 1.044 0.189 5.444 0.189 5.444s1.665 1.206 6.641 1.071 13.237-0.9 13.237-0.9z"></path>
<path fill="#fff" style="fill: var(--color2, #fff)" d="M20.067 11.852c0 0.984-0.798 1.782-1.782 1.782s-1.782-0.798-1.782-1.782c0-0.984 0.798-1.782 1.782-1.782s1.782 0.798 1.782 1.782z"></path>
<path fill="#040000" style="fill: var(--color1, #040000)" d="M25.242 25.017h-17.764c-1.242 0-2.25-1.007-2.25-2.25v0-13.426c0-1.242 1.007-2.25 2.25-2.25v0h17.764c1.242 0 2.25 1.007 2.25 2.25v0 13.426c0 1.242-1.007 2.25-2.25 2.25v0zM7.478 8.891c-0.248 0-0.45 0.201-0.45 0.45v0 13.426c0 0.248 0.201 0.45 0.45 0.45v0h17.764c0.248 0 0.45-0.201 0.45-0.45v0-13.426c0-0.248-0.201-0.45-0.45-0.45v0z"></path>
</symbol>
<symbol id="icon-uppick" viewBox="0 0 43 32">
<path fill="#a5a5a5" style="fill: var(--color3, #a5a5a5)" d="M4.252 5.363h29.352c0.812 0 1.47 0.658 1.47 1.47v22.795c0 0.812-0.658 1.47-1.47 1.47h-29.352c-0.812 0-1.47-0.658-1.47-1.47v-22.795c0-0.812 0.658-1.47 1.47-1.47z"></path>
<path fill="#fff" style="fill: var(--color2, #fff)" d="M2.782 22.912c-0.002 0-0.005 0-0.008 0-0.272 0-0.514-0.13-0.667-0.332l-0.002-0.002c-0.101-0.136-0.161-0.308-0.161-0.493 0-0.277 0.135-0.523 0.343-0.675l0.002-0.002 8.161-5.989c0.301-0.276 2.197-1.863 3.65-1.069 0.76 0.418 1.52 1.462 2.698 3.124 0.768 1.103 2.823 4.018 3.433 3.7 4.519-2.314 9.063-4.469 14.492-6.975 0.103-0.049 0.224-0.077 0.351-0.077 0.462 0 0.837 0.375 0.837 0.837 0 0.335-0.197 0.624-0.481 0.758l-0.005 0.002c-5.413 2.506-9.94 4.636-14.434 6.933-1.896 0.977-3.759-1.671-5.563-4.218-0.616-0.998-1.321-1.859-2.124-2.617l-0.006-0.006c-0.234-0.134-1.161 0.326-1.796 0.894l-8.228 6.047c-0.136 0.099-0.306 0.159-0.49 0.159-0.001 0-0.002 0-0.003 0h0z"></path>
<path fill="#fff" style="fill: var(--color2, #fff)" d="M21.951 15.804c-2.136 0-3.867-1.732-3.867-3.867s1.732-3.867 3.867-3.867c2.136 0 3.867 1.732 3.867 3.867v0c0 2.136-1.732 3.867-3.867 3.867v0zM21.951 9.748c-1.213 0-2.197 0.984-2.197 2.197s0.984 2.197 2.197 2.197c1.213 0 2.197-0.984 2.197-2.197 0-0.003 0-0.006-0-0.009v0c0 0 0 0 0-0 0-1.209-0.98-2.188-2.188-2.188-0.003 0-0.006 0-0.009 0h0z"></path>
<path fill="#a5a5a5" style="fill: var(--color3, #a5a5a5)" d="M33.662 14.684v-4.594h-4.594v-2.506h4.594v-4.594h2.506v4.594h4.594v2.506h-4.594v4.594z"></path>
<path fill="#fff" style="fill: var(--color2, #fff)" d="M36.577 15.102h-3.341v-4.594h-4.594v-3.341h4.594v-4.594h3.341v4.594h4.594v3.341h-4.594zM34.072 14.267h1.671v-4.594h4.594v-1.671h-4.594v-4.594h-1.671v4.594h-4.594v1.671h4.594z"></path>
</symbol>
<symbol id="icon-dragpick" viewBox="0 0 47 32">
<path fill="#b9b9b9" style="fill: var(--color4, #b9b9b9)" d="M44.395 30.231h-1.476c-0.238 0-0.43-0.193-0.43-0.43s0.193-0.43 0.43-0.43v0h1.476c0.713 0 1.291-0.578 1.291-1.291v0-0.103c0-0.238 0.193-0.43 0.43-0.43s0.43 0.193 0.43 0.43v0 0.12c-0.010 1.181-0.969 2.135-2.152 2.135-0 0-0 0-0 0v0zM38.615 30.231h-4.304c-0.238 0-0.43-0.193-0.43-0.43s0.193-0.43 0.43-0.43v0h4.304c0.238 0 0.43 0.193 0.43 0.43s-0.193 0.43-0.43 0.43v0zM30.007 30.231h-4.304c-0.238 0-0.43-0.193-0.43-0.43s0.193-0.43 0.43-0.43v0h4.304c0.238 0 0.43 0.193 0.43 0.43s-0.193 0.43-0.43 0.43v0zM21.399 30.231h-4.304c-0.238 0-0.43-0.193-0.43-0.43s0.193-0.43 0.43-0.43v0h4.304c0.238 0 0.43 0.193 0.43 0.43s-0.193 0.43-0.43 0.43v0zM13.446 28.875c-0.003 0-0.007 0-0.011 0-0.204 0-0.375-0.142-0.419-0.333l-0.001-0.003c-0.033-0.138-0.052-0.297-0.052-0.46 0-0 0-0.001 0-0.001v0-3.934c0-0.238 0.193-0.43 0.43-0.43s0.43 0.193 0.43 0.43v0 3.934c-0 0.003-0 0.007-0 0.011 0 0.094 0.011 0.185 0.032 0.273l-0.002-0.008c0.006 0.028 0.010 0.059 0.010 0.092 0 0.205-0.143 0.376-0.334 0.42l-0.003 0.001c-0.024 0.005-0.051 0.009-0.079 0.009-0.001 0-0.002 0-0.002 0h0zM46.117 24.102c-0.238 0-0.43-0.193-0.43-0.43v0-4.304c0-0.238 0.193-0.43 0.43-0.43s0.43 0.193 0.43 0.43v0 4.304c0 0.238-0.193 0.43-0.43 0.43v0zM13.407 20.289c-0.238 0-0.43-0.193-0.43-0.43v0-4.304c0-0.238 0.193-0.43 0.43-0.43s0.43 0.193 0.43 0.43v0 4.304c-0.009 0.23-0.198 0.413-0.43 0.413-0 0-0 0-0 0h0zM46.117 15.494c-0.238 0-0.43-0.193-0.43-0.43v0-4.304c0-0.238 0.193-0.43 0.43-0.43s0.43 0.193 0.43 0.43v0 4.304c0 0.238-0.193 0.43-0.43 0.43v0zM13.407 11.681c-0.238 0-0.43-0.193-0.43-0.43v0-2.97c0-0.002 0-0.004 0-0.006 0-0.592 0.242-1.128 0.632-1.513l0-0c0.079-0.107 0.205-0.176 0.347-0.176 0.238 0 0.43 0.193 0.43 0.43 0 0.145-0.072 0.274-0.182 0.352l-0.001 0.001c-0.234 0.233-0.378 0.556-0.379 0.912v2.953c0 0 0 0 0 0 0 0.233-0.185 0.423-0.417 0.43l-0.001 0zM45.222 7.218c-0.001 0-0.001 0-0.002 0-0.075 0-0.145-0.019-0.207-0.053l0.002 0.001c-0.179-0.1-0.392-0.159-0.62-0.159h-3.443c-0.238 0-0.43-0.193-0.43-0.43s0.193-0.43 0.43-0.43v0h3.443c0.001 0 0.002 0 0.003 0 0.378 0 0.733 0.097 1.041 0.268l-0.011-0.006c0.136 0.074 0.226 0.216 0.226 0.379 0 0.238-0.193 0.43-0.43 0.43-0.001 0-0.002 0-0.002 0h0zM36.648 7.007h-4.304c-0.238 0-0.43-0.193-0.43-0.43s0.193-0.43 0.43-0.43v0h4.304c0.238 0 0.43 0.193 0.43 0.43s-0.193 0.43-0.43 0.43v0zM28.040 7.007h-4.304c-0.238 0-0.43-0.193-0.43-0.43s0.193-0.43 0.43-0.43v0h4.304c0.238 0 0.43 0.193 0.43 0.43s-0.193 0.43-0.43 0.43v0zM19.432 7.007h-4.304c-0.238 0-0.43-0.193-0.43-0.43s0.193-0.43 0.43-0.43v0h4.304c0.238 0 0.43 0.193 0.43 0.43s-0.193 0.43-0.43 0.43v0z"></path>
<path fill="#4970b6" style="fill: var(--color5, #4970b6)" d="M3.607 2.255h28.867c1.188 0 2.152 0.963 2.152 2.152v19.187c0 1.189-0.963 2.152-2.152 2.152h-28.867c-1.188 0-2.152-0.963-2.152-2.152v-19.187c0-1.188 0.963-2.152 2.152-2.152z"></path>
<path fill="#fff" style="fill: var(--color2, #fff)" d="M34.341 9.658c-4.919 2.294-9.809 4.618-14.651 7.127-2.044 1.029-5.32-6.082-6.998-7.007-1.020-0.564-2.789 1.033-2.789 1.033l-8.268 6.116c-0.103 0.788-0.181 7.85-0.181 7.85s-1.222 1.171 6.77 0.968 26.116-0.491 26.116-0.491z"></path>
<path fill="#fff" style="fill: var(--color2, #fff)" d="M23.732 7.885c0 1.431-1.16 2.591-2.591 2.591s-2.591-1.16-2.591-2.591c0-1.431 1.16-2.591 2.591-2.591s2.591 1.16 2.591 2.591z"></path>
<path fill="#4970b6" style="fill: var(--color5, #4970b6)" d="M32.473 26.822h-28.867c-1.782-0.002-3.226-1.446-3.228-3.228v-19.187c0.005-1.781 1.447-3.223 3.228-3.228h28.867c1.781 0.005 3.223 1.447 3.228 3.228v19.188c-0.002 1.782-1.446 3.226-3.228 3.228h-0zM3.607 3.331c-0.594 0-1.076 0.482-1.076 1.076v0 19.187c0 0.594 0.482 1.076 1.076 1.076v0h28.867c0.594 0 1.076-0.482 1.076-1.076v0-19.187c0-0.594-0.482-1.076-1.076-1.076v0z"></path>
</symbol>
<symbol id="icon-home" viewBox="0 0 34 32">
<path d="M28.841 30.497h-7.784c-0.497 0-0.9-0.403-0.9-0.9v0-10.169h-5.192v10.169c0 0.497-0.403 0.9-0.9 0.9v0h-7.766c-0.497 0-0.9-0.403-0.9-0.9v0-13.318h-1.647c-0.004 0-0.008 0-0.013 0-0.497 0-0.9-0.403-0.9-0.9 0-0.283 0.131-0.536 0.335-0.701l0.002-0.001 13.822-11.285c0.153-0.125 0.351-0.201 0.567-0.201s0.414 0.076 0.569 0.202l-0.002-0.001 3.95 3.231v-0.522c0-0.497 0.403-0.9 0.9-0.9v0h4.436c0.497 0 0.9 0.403 0.9 0.9v0 5.597l3.6 2.961c0.206 0.166 0.337 0.419 0.337 0.702 0 0.497-0.403 0.9-0.9 0.9-0.001 0-0.003 0-0.004 0h-1.611v13.318c0 0.005 0 0.012 0 0.018 0 0.497-0.403 0.9-0.9 0.9-0 0-0 0-0 0v0zM21.957 28.697h5.984v-13.318c0-0.497 0.403-0.9 0.9-0.9v0 0l-2.007-1.647c-0.199-0.166-0.324-0.414-0.324-0.691 0-0.001 0-0.001 0-0.002v0-5.138h-2.628v1.521c-0.001 0.355-0.208 0.662-0.508 0.808l-0.005 0.002c-0.113 0.054-0.245 0.086-0.384 0.086-0.217 0-0.416-0.077-0.571-0.204l0.002 0.001-4.85-3.96-11.267 9.224c0.497 0 0.9 0.403 0.9 0.9v0 13.318h5.984v-10.169c0-0.497 0.403-0.9 0.9-0.9v0h6.974c0.497 0 0.9 0.403 0.9 0.9v0z"></path>
</symbol>
<symbol id="icon-news" viewBox="0 0 34 32">
<path d="M8.792 21.939h-1.377c-2.024-0.005-3.663-1.647-3.663-3.672 0 0 0 0 0 0v0-2.97c-0-0.005-0-0.012-0-0.018 0-2.025 1.639-3.666 3.662-3.672h1.377zM6.992 13.498c-0.825 0.2-1.429 0.928-1.44 1.799v2.971c0.010 0.872 0.615 1.599 1.427 1.797l0.013 0.003z"></path>
<path d="M12.742 23.28h-3.114c-1.456 0-2.637-1.18-2.637-2.637v0-7.883c0-1.456 1.18-2.637 2.637-2.637v0h3.114zM9.629 11.924c-0.462 0-0.837 0.375-0.837 0.837v0 7.883c0 0.462 0.375 0.837 0.837 0.837v0h1.314v-9.557z"></path>
<path d="M31.154 29.696l-20.211-6.659v-12.598l20.211-8.189zM12.742 21.777l16.612 5.399v-22.254l-16.612 6.713z"></path>
</symbol>
<symbol id="icon-merit" viewBox="0 0 34 32">
<path d="M17.197 29.48c-7.455 0-13.498-6.043-13.498-13.498s6.043-13.498 13.498-13.498c7.455 0 13.498 6.043 13.498 13.498v0c0 7.455-6.043 13.498-13.498 13.498v0zM17.197 4.283c-6.461 0-11.699 5.238-11.699 11.699s5.238 11.699 11.699 11.699c6.461 0 11.699-5.238 11.699-11.699v0c-0.015-6.449-5.247-11.672-11.698-11.672 0 0 0 0-0 0v0z"></path>
<path d="M22.614 25.197c-0.001 0-0.002 0-0.004 0-0.15 0-0.291-0.037-0.415-0.101l0.005 0.002-5.003-2.601-4.994 2.628c-0.12 0.064-0.263 0.101-0.414 0.101-0.2 0-0.384-0.065-0.533-0.175l0.002 0.002c-0.229-0.165-0.376-0.431-0.376-0.732 0-0.060 0.006-0.118 0.017-0.174l-0.001 0.006 0.954-5.561-4.040-3.915c-0.17-0.164-0.276-0.394-0.276-0.648 0-0.451 0.332-0.825 0.766-0.89l0.005-0.001 5.588-0.81 2.502-5.066c0.151-0.295 0.453-0.494 0.801-0.495h0c0.002 0 0.004-0 0.006-0 0.349 0 0.652 0.199 0.801 0.49l0.002 0.005 2.502 5.066 5.588 0.81c0.438 0.065 0.771 0.439 0.771 0.891 0 0.255-0.106 0.484-0.275 0.648l-0 0-4.040 3.942 0.954 5.561c0.010 0.051 0.016 0.109 0.016 0.168 0 0.3-0.147 0.566-0.373 0.73l-0.003 0.002c-0.129 0.076-0.284 0.121-0.45 0.121-0.028 0-0.057-0.001-0.084-0.004l0.004 0zM17.215 20.553c0.004-0 0.008-0 0.012-0 0.15 0 0.291 0.037 0.415 0.101l-0.005-0.002 3.798 1.998-0.72-4.229c-0.009-0.049-0.015-0.104-0.015-0.162 0-0.25 0.102-0.476 0.267-0.639l0-0 3.078-2.997-4.247-0.576c-0.298-0.046-0.545-0.233-0.673-0.49l-0.002-0.005-1.908-3.852-1.917 3.852c-0.13 0.262-0.377 0.449-0.67 0.494l-0.005 0.001-4.256 0.612 3.078 2.997c0.169 0.164 0.274 0.393 0.274 0.647 0 0.054-0.005 0.108-0.014 0.16l0.001-0.005-0.729 4.229 3.807-1.989c0.118-0.068 0.259-0.108 0.409-0.108 0.002 0 0.004 0 0.005 0h-0z"></path>
</symbol>
<symbol id="icon-history" viewBox="0 0 34 32">
<path d="M17.197 30.326c-7.455 0-13.498-6.043-13.498-13.498s6.043-13.498 13.498-13.498c7.455 0 13.498 6.043 13.498 13.498v0c0 7.455-6.043 13.498-13.498 13.498v0zM17.197 5.129c-6.461 0-11.699 5.238-11.699 11.699s5.238 11.699 11.699 11.699c6.461 0 11.699-5.238 11.699-11.699v0c-0.015-6.449-5.247-11.672-11.698-11.672 0 0 0 0-0 0v0z"></path>
<path d="M12.877 12.526l4.319 4.319 3.195 8.639z"></path>
<path d="M20.391 26.385c-0.383-0.004-0.709-0.247-0.835-0.588l-0.002-0.006-3.132-8.45-4.175-4.184c-0.162-0.163-0.262-0.387-0.262-0.634s0.1-0.472 0.262-0.634l-0 0c0.163-0.162 0.387-0.262 0.634-0.262s0.472 0.1 0.634 0.262l4.319 4.319c0.089 0.089 0.16 0.197 0.205 0.318l0.002 0.006 3.195 8.666c0.030 0.086 0.048 0.186 0.048 0.29 0 0.385-0.242 0.713-0.582 0.842l-0.006 0.002c-0.091 0.034-0.196 0.054-0.306 0.054h-0z"></path>
</symbol>
<symbol id="icon-activity" viewBox="0 0 34 32">
<path d="M29.462 27.15h-24.297c-1.361-0.010-2.461-1.113-2.466-2.474v-18.745c0.005-1.354 1.088-2.454 2.436-2.484l0.003-0h24.297c0.005-0 0.012-0 0.018-0 1.374 0 2.488 1.111 2.493 2.483v18.745c-0.005 1.368-1.115 2.475-2.484 2.475 0 0 0 0-0 0v0zM5.138 5.246c-0.358 0.024-0.639 0.321-0.639 0.682 0 0.001 0 0.001 0 0.002v-0 18.745c0.005 0.374 0.309 0.675 0.684 0.675 0 0 0 0 0 0h24.297c0 0 0 0 0 0 0.375 0 0.679-0.301 0.684-0.674v-18.745c0-0.378-0.306-0.684-0.684-0.684v0z"></path>
<path d="M29.462 30.236h-24.297c-1.362-0.015-2.461-1.12-2.466-2.483v-18.754c0.015-1.346 1.095-2.436 2.436-2.466l0.003-0h24.297c0.005-0 0.012-0 0.018-0 1.367 0 2.477 1.101 2.493 2.464v18.755c-0.005 1.37-1.114 2.479-2.483 2.484h-0zM5.138 8.333c-0.352 0.024-0.63 0.311-0.639 0.665l-0 0.001v18.754c0 0.378 0.306 0.684 0.684 0.684v0h24.297c0.378 0 0.684-0.306 0.684-0.684v0-18.754c0-0.378-0.306-0.684-0.684-0.684v0z"></path>
<path d="M3.6 22.569c-0.001 0-0.002 0-0.002 0-0.297 0-0.561-0.144-0.725-0.366l-0.002-0.002c-0.108-0.147-0.174-0.331-0.174-0.531 0-0.298 0.145-0.563 0.369-0.727l0.003-0.002 6.947-5.093c0.261-0.243 1.962-1.665 3.303-0.9 0.948 0.74 1.735 1.636 2.334 2.656l0.024 0.044c0.702 0.99 2.151 3.042 2.7 3.078 4.095-2.097 8.333-4.085 12.301-5.921 0.125-0.070 0.274-0.111 0.433-0.111 0.497 0 0.9 0.403 0.9 0.9 0 0.381-0.237 0.707-0.571 0.838l-0.006 0.002c-3.95 1.8-8.18 3.816-12.283 5.903-1.8 0.9-3.393-1.413-4.967-3.654-0.531-0.82-1.125-1.532-1.794-2.163l-0.006-0.005c-0.511 0.141-0.95 0.397-1.306 0.739l0.001-0.001-7.019 5.147c-0.128 0.095-0.285 0.156-0.456 0.171l-0.003 0z"></path>
<path d="M19.878 16.513c-1.908-0.020-3.447-1.572-3.447-3.482 0-1.923 1.559-3.483 3.483-3.483s3.482 1.559 3.483 3.482v0c-0.005 1.925-1.566 3.483-3.492 3.483-0.009 0-0.019-0-0.028-0h0.001zM19.878 11.357c-0.914 0.020-1.647 0.766-1.647 1.682 0 0.929 0.753 1.683 1.683 1.683s1.683-0.753 1.683-1.683c0-0.003 0-0.006-0-0.009v0c-0.005-0.926-0.756-1.674-1.683-1.674-0.013 0-0.025 0-0.038 0l0.002-0z"></path>
</symbol>
<symbol id="icon-message" viewBox="0 0 34 32">
<path d="M19.303 18.367c-0.233-0.001-0.444-0.089-0.604-0.235l0.001 0.001-1.53-1.368-1.701 1.323c-0.151 0.12-0.345 0.192-0.556 0.192-0.145 0-0.282-0.034-0.404-0.095l0.005 0.002-11.366-5.588c-0.297-0.151-0.496-0.454-0.496-0.804 0-0.313 0.16-0.589 0.403-0.75l0.003-0.002 13.642-8.999c0.139-0.093 0.311-0.148 0.495-0.148s0.356 0.055 0.498 0.15l-0.003-0.002 13.651 8.999c0.242 0.164 0.398 0.437 0.398 0.747 0 0.022-0.001 0.044-0.002 0.066l0-0.003c-0.022 0.327-0.215 0.604-0.49 0.745l-0.005 0.002-11.546 5.678c-0.116 0.054-0.252 0.087-0.395 0.090l-0.001 0zM17.215 14.695c0.233 0.001 0.444 0.089 0.604 0.235l-0.001-0.001 1.629 1.458 9.593-4.688-11.843-7.82-11.798 7.82 9.458 4.643 1.854-1.44c0.137-0.115 0.31-0.191 0.501-0.207l0.003-0z"></path>
<path d="M30.848 28.697h-27.303c-0.497 0-0.9-0.403-0.9-0.9v0-16.009c0.005-0.319 0.175-0.597 0.428-0.754l0.004-0.002c0.129-0.076 0.284-0.121 0.45-0.121s0.321 0.045 0.454 0.123l-0.004-0.002 10.862 5.336 1.854-1.44c0.15-0.117 0.341-0.187 0.549-0.187 0.232 0 0.444 0.088 0.604 0.232l-0.001-0.001 1.629 1.458 11.006-5.399c0.129-0.076 0.284-0.121 0.45-0.121s0.321 0.045 0.454 0.123l-0.004-0.002c0.254 0.16 0.42 0.438 0.423 0.756v16.009c0 0 0 0.001 0 0.002 0 0.497-0.403 0.9-0.9 0.9-0.019 0-0.038-0.001-0.057-0.002l0.003 0zM4.445 26.898h25.503v-13.66l-10.25 5.039c-0.115 0.057-0.25 0.090-0.393 0.090-0.234 0-0.446-0.089-0.606-0.235l0.001 0.001-1.53-1.368-1.701 1.323c-0.151 0.12-0.345 0.192-0.556 0.192-0.145 0-0.282-0.034-0.404-0.095l0.005 0.002-10.070-4.949z"></path>
<path d="M30.848 28.697h-27.249c-0.002 0-0.005 0-0.008 0-0.497 0-0.9-0.403-0.9-0.9 0-0.268 0.117-0.509 0.304-0.674l0.001-0.001 13.615-12.193c0.159-0.144 0.371-0.232 0.603-0.232s0.444 0.088 0.604 0.233l-0.001-0.001 13.624 12.193c0.187 0.166 0.305 0.407 0.305 0.675 0 0.497-0.402 0.899-0.899 0.9h-0zM5.93 26.898h22.56l-11.276-10.097z"></path>
</symbol>
<symbol id="icon-course" viewBox="0 0 34 32">
<path d="M6.056 29.336c-1.85-0.046-3.35-1.481-3.5-3.299l-0.001-0.013v-0.126c0.157-1.858 1.703-3.306 3.588-3.306 0.055 0 0.109 0.001 0.164 0.004l-0.008-0h17.755v-18.997c0-0.497 0.403-0.9 0.9-0.9s0.9 0.403 0.9 0.9v0 20.796h-19.555c-0.037-0.003-0.080-0.004-0.123-0.004-0.913 0-1.667 0.68-1.784 1.561l-0.001 0.009c0.116 0.893 0.871 1.575 1.786 1.575 0.011 0 0.023-0 0.034-0l-0.002 0h21.687v-20.49c0-0.497 0.403-0.9 0.9-0.9s0.9 0.403 0.9 0.9v0 22.281h-23.64z"></path>
<path d="M25.674 26.862h-23.118v-21.318c0.114-1.596 1.437-2.848 3.052-2.848 0.060 0 0.119 0.002 0.177 0.005l-0.008-0h20.166v20.796zM4.355 25.962v0zM4.355 25.062h19.663l0.126-1.665v-18.898h-18.421c-0.037-0.004-0.081-0.006-0.125-0.006-0.642 0-1.171 0.484-1.243 1.107l-0.001 0.006z"></path>
</symbol>
<symbol id="icon-recruit" viewBox="0 0 34 32">
<path d="M26.277 30.281h-22.812c-0.497 0-0.9-0.403-0.9-0.9v0-25.881c0-0.497 0.403-0.9 0.9-0.9v0h17.368c0.002 0 0.004-0 0.006-0 0.238 0 0.455 0.092 0.616 0.243l-0-0 5.399 5.084c0.177 0.164 0.287 0.398 0.288 0.657v4.14c0 0.497-0.403 0.9-0.9 0.9s-0.9-0.403-0.9-0.9v0-3.726l-4.859-4.598h-16.117v24.081h21.012v-6.632c0-0.497 0.403-0.9 0.9-0.9s0.9 0.403 0.9 0.9v0 7.532c0 0.497-0.403 0.9-0.9 0.9v0z"></path>
<path d="M26.277 9.485h-5.264c-0.497 0-0.9-0.403-0.9-0.9v0l-0.117-5.093c0.012-0.352 0.224-0.652 0.525-0.79l0.006-0.002c0.106-0.048 0.231-0.076 0.362-0.076 0.24 0 0.458 0.094 0.62 0.247l5.399 5.084c0.176 0.165 0.285 0.398 0.285 0.657 0 0.497-0.403 0.9-0.9 0.9-0.002 0-0.004 0-0.006-0h0zM21.894 7.685h2.124l-2.178-2.052z"></path>
<path d="M21.597 12.418h-14.551c-0.497 0-0.9-0.403-0.9-0.9s0.403-0.9 0.9-0.9v0h14.551c0.497 0 0.9 0.403 0.9 0.9s-0.403 0.9-0.9 0.9v0z"></path>
<path d="M17.692 16.315h-10.646c-0.497 0-0.9-0.403-0.9-0.9s0.403-0.9 0.9-0.9v0h10.646c0.497 0 0.9 0.403 0.9 0.9s-0.403 0.9-0.9 0.9v0z"></path>
<path d="M18.34 20.157h-11.294c-0.497 0-0.9-0.403-0.9-0.9s0.403-0.9 0.9-0.9v0h11.294c0.497 0 0.9 0.403 0.9 0.9s-0.403 0.9-0.9 0.9v0z"></path>
<path d="M17.692 24h-10.646c-0.497 0-0.9-0.403-0.9-0.9s0.403-0.9 0.9-0.9v0h10.646c0.497 0 0.9 0.403 0.9 0.9s-0.403 0.9-0.9 0.9v0z"></path>
<path d="M23.532 23.397c-0.062 0.002-0.135 0.003-0.209 0.003-3.423 0-6.209-2.731-6.297-6.133l-0-0.008c0.089-3.41 2.874-6.141 6.297-6.141 0.073 0 0.147 0.001 0.22 0.004l-0.011-0c0.062-0.002 0.135-0.003 0.209-0.003 3.423 0 6.209 2.731 6.297 6.133l0 0.008c-0.089 3.41-2.874 6.141-6.297 6.141-0.073 0-0.147-0.001-0.22-0.004l0.011 0zM23.532 12.922c-0.063-0.003-0.136-0.005-0.21-0.005-2.43 0-4.41 1.926-4.496 4.334l-0 0.008c0.087 2.416 2.067 4.342 4.497 4.342 0.074 0 0.147-0.002 0.22-0.005l-0.010 0c0.063 0.003 0.136 0.005 0.21 0.005 2.43 0 4.41-1.926 4.496-4.334l0-0.008c-0.102-2.405-2.075-4.315-4.496-4.315-0.074 0-0.148 0.002-0.221 0.005l0.010-0z"></path>
<path d="M32.54 26.61c-0.237-0.001-0.452-0.093-0.612-0.243l0 0-5.048-4.724c-0.176-0.165-0.285-0.398-0.285-0.657 0-0.237 0.091-0.452 0.241-0.612l-0 0.001c0.165-0.176 0.398-0.285 0.657-0.285 0.237 0 0.452 0.091 0.612 0.241l-0.001-0 5.057 4.724c0.162 0.163 0.262 0.387 0.262 0.634s-0.1 0.472-0.262 0.634l0-0c-0.156 0.168-0.375 0.277-0.619 0.288l-0.002 0z"></path>
</symbol>
<symbol id="icon-diy" viewBox="0 0 34 32">
<path d="M26.151 30.65h-22.272c0 0 0 0-0 0-1.354 0-2.452-1.095-2.457-2.447v-25.116c0.005-1.353 1.103-2.448 2.457-2.448 0 0 0 0 0 0h23.397c1.352 0 2.448 1.096 2.448 2.448v0 23.010c0 0.497-0.403 0.9-0.9 0.9s-0.9-0.403-0.9-0.9v0-23.010c0-0.358-0.29-0.648-0.648-0.648v0h-23.397c-0 0-0 0-0 0-0.36 0-0.652 0.289-0.657 0.647v25.116c0.005 0.359 0.297 0.648 0.657 0.648 0 0 0 0 0 0h22.272c0.497 0 0.9 0.403 0.9 0.9s-0.403 0.9-0.9 0.9v0z"></path>
<path d="M14.245 25.854c-0.248-0.004-0.473-0.102-0.639-0.261l0 0-7.838-7.847c-0.164-0.163-0.266-0.389-0.266-0.639s0.102-0.476 0.266-0.639l1.863-1.863c0.163-0.162 0.387-0.262 0.635-0.262 0.209 0 0.402 0.072 0.555 0.191l-0.002-0.001 0.855 0.657-0.54-0.99c-0.068-0.124-0.108-0.271-0.108-0.428 0-0.252 0.103-0.479 0.27-0.643l3.069-3.069c0.163-0.166 0.39-0.269 0.641-0.269 0.076 0 0.149 0.009 0.22 0.027l-0.006-0.001 1.089 0.27-0.351-0.963c-0.031-0.087-0.048-0.187-0.048-0.291 0-0.235 0.090-0.449 0.238-0.61l-0.001 0.001 1.917-2.025c0.161-0.169 0.387-0.275 0.638-0.279h0.001c0.004-0 0.009-0 0.014-0 0.247 0 0.471 0.1 0.634 0.261l-0-0 7.847 7.82c0.17 0.164 0.275 0.394 0.275 0.648s-0.105 0.484-0.275 0.648l-0 0-10.313 10.295c-0.163 0.161-0.386 0.261-0.634 0.261-0.002 0-0.004 0-0.005-0h0zM7.676 17.098l6.569 6.569 8.999-8.999-6.515-6.569-0.9 0.9 0.729 2.034c0.032 0.089 0.051 0.191 0.051 0.298 0 0.232-0.088 0.443-0.232 0.603l0.001-0.001c-0.165 0.184-0.405 0.3-0.671 0.3-0.082 0-0.161-0.011-0.236-0.031l0.006 0.001-2.196-0.504-2.241 2.241 2.25 4.184c0.068 0.124 0.108 0.271 0.108 0.428 0 0.497-0.403 0.9-0.9 0.9-0.212 0-0.406-0.073-0.56-0.196l0.002 0.001-3.6-2.808z"></path>
<path d="M28.032 31.613v0c-0.883-0.006-1.679-0.374-2.249-0.962l-0.001-0.001-4.634-5.399-2.088 2.088c-0.467 0.465-1.111 0.753-1.822 0.753s-1.355-0.288-1.822-0.753l-1.8-1.8c-0.164-0.161-0.266-0.383-0.27-0.629v-0.001c0.001-0.25 0.104-0.476 0.27-0.639l0-0 10.313-10.268c0.162-0.16 0.384-0.26 0.63-0.261h0c0.002 0 0.003 0 0.005 0 0.247 0 0.471 0.1 0.634 0.261l1.8 1.8c0.467 0.466 0.756 1.11 0.756 1.822s-0.289 1.356-0.756 1.822l-0 0-2.124 2.061 5.48 4.652c0.57 0.578 0.923 1.373 0.923 2.25 0 1.768-1.432 3.201-3.199 3.204h-0zM21.165 23.037v0c0.26 0.011 0.49 0.13 0.647 0.314l0.001 0.001 5.219 6.083c0.242 0.234 0.573 0.378 0.937 0.378 0.003 0 0.006 0 0.009-0h-0c0.773-0.003 1.398-0.63 1.398-1.404 0-0.382-0.152-0.728-0.4-0.981l0 0-6.056-5.192c-0.192-0.166-0.313-0.41-0.313-0.682 0-0.246 0.099-0.469 0.259-0.632l-0 0 2.772-2.79c0.141-0.14 0.228-0.334 0.228-0.549s-0.087-0.409-0.228-0.549l-1.125-1.125-8.999 9.044 1.134 1.143c0.14 0.141 0.334 0.228 0.549 0.228s0.409-0.087 0.549-0.228l2.781-2.781c0.161-0.169 0.387-0.275 0.638-0.279h0.001z"></path>
</symbol>
<symbol id="icon-watermark" viewBox="0 0 34 32">
<path d="M17.197 30.65c-8.091 0-14.65-6.559-14.65-14.65s6.559-14.65 14.65-14.65c8.091 0 14.65 6.559 14.65 14.65v0c-0.010 8.087-6.563 14.64-14.649 14.65h-0.001zM17.197 2.25c-7.594 0-13.75 6.156-13.75 13.75s6.156 13.75 13.75 13.75c7.594 0 13.75-6.156 13.75-13.75v0c-0.005-7.592-6.158-13.745-13.75-13.75h-0z"></path>
<path d="M17.197 31.1c-8.34 0-15.1-6.761-15.1-15.1s6.761-15.1 15.1-15.1c8.34 0 15.1 6.761 15.1 15.1v0c-0.010 8.335-6.765 15.090-15.099 15.1h-0.001zM17.197 2.7c-7.346 0-13.3 5.955-13.3 13.3s5.955 13.3 13.3 13.3c7.346 0 13.3-5.955 13.3-13.3v0c-0.010-7.341-5.959-13.29-13.299-13.3h-0.001z"></path>
<path d="M15.784 13.309h-4.085v-2.268h11.069v2.268h-4.139v9.449h-2.844z"></path>
</symbol>
<symbol id="icon-delete" viewBox="0 0 34 32">
<path d="M24.18 7.928l-14.2 3.123c-0.048-0.204-0.076-0.437-0.076-0.678 0-1.447 1.008-2.659 2.359-2.972l0.021-0.004h0.18l7.622-1.674c0.258-0.070 0.553-0.109 0.858-0.109 1.493 0 2.762 0.957 3.229 2.29l0.007 0.024z"></path>
<path d="M15.298 8.756c-1.174-0.030-2.115-0.989-2.115-2.168 0-0.99 0.663-1.824 1.569-2.085l2.256-0.553c0.157-0.041 0.338-0.064 0.524-0.064 1.198 0 2.169 0.971 2.169 2.169 0 0.424-0.122 0.819-0.332 1.153l0.005-0.009c-0.309 0.48-0.795 0.824-1.363 0.942l-0.014 0.002-2.241 0.549c-0.135 0.033-0.292 0.055-0.453 0.063l-0.006 0zM15.037 5.534c-0.285 0.068-0.52 0.244-0.663 0.481l-0.003 0.005c-0.102 0.165-0.163 0.366-0.163 0.58 0 0.088 0.010 0.173 0.029 0.255l-0.002-0.008c0.123 0.477 0.549 0.823 1.056 0.823 0.092 0 0.181-0.011 0.265-0.033l-0.008 0.002 2.25-0.549c0.285-0.068 0.52-0.244 0.663-0.481l0.003-0.005c0.102-0.164 0.162-0.362 0.162-0.575 0-0.087-0.010-0.171-0.029-0.252l0.001 0.007c-0.071-0.288-0.25-0.526-0.49-0.672l-0.005-0.003c-0.158-0.1-0.35-0.159-0.557-0.159-0.093 0-0.184 0.012-0.27 0.035l0.007-0.002z"></path>
<path d="M10.286 11.834v14.83c0 0.994 0.806 1.8 1.8 1.8v0h10.61c0.994 0 1.8-0.806 1.8-1.8v0-14.83zM13.831 24.369c0 0.248-0.201 0.45-0.45 0.45v0c-0.248 0-0.45-0.201-0.45-0.45v0-8.774c0.005-0.246 0.203-0.445 0.449-0.45h0c0.248 0 0.45 0.201 0.45 0.45v0zM17.746 24.468c0 0.248-0.201 0.45-0.45 0.45s-0.45-0.201-0.45-0.45v0-8.774c0-0.248 0.201-0.45 0.45-0.45s0.45 0.201 0.45 0.45v0zM21.759 24.468c0 0.248-0.201 0.45-0.45 0.45v0c-0.248 0-0.45-0.201-0.45-0.45v0-8.774c0-0.248 0.201-0.45 0.45-0.45v0c0.248 0 0.45 0.201 0.45 0.45v0z"></path>
</symbol>
<symbol id="icon-filter" viewBox="0 0 34 32">
<path d="M14.398 26.142v-9.836l-7.199-9.062h18.898l-6.704 8.441v10.457z"></path>
</symbol>
<symbol id="icon-select" viewBox="0 0 34 32">
<path d="M26.664 29.12h-2.7c-0.497 0-0.9-0.403-0.9-0.9s0.403-0.9 0.9-0.9v0h2.7c0.497 0 0.9 0.403 0.9 0.9s-0.403 0.9-0.9 0.9v0zM20.364 29.12h-2.7c-0.497 0-0.9-0.403-0.9-0.9s0.403-0.9 0.9-0.9v0h2.7c0.497 0 0.9 0.403 0.9 0.9s-0.403 0.9-0.9 0.9v0zM14.065 29.12h-2.7c-0.497 0-0.9-0.403-0.9-0.9s0.403-0.9 0.9-0.9v0h2.7c0.497 0 0.9 0.403 0.9 0.9s-0.403 0.9-0.9 0.9v0zM7.766 29.12h-2.7c-0.497 0-0.9-0.403-0.9-0.9s0.403-0.9 0.9-0.9v0h2.7c0.497 0 0.9 0.403 0.9 0.9s-0.403 0.9-0.9 0.9v0zM2.997 27.591c-0.497 0-0.9-0.403-0.9-0.9v0-2.7c0-0.497 0.403-0.9 0.9-0.9s0.9 0.403 0.9 0.9v0 2.7c0 0.497-0.403 0.9-0.9 0.9v0zM27.681 26.538c-0.497 0-0.9-0.403-0.9-0.9v0-2.7c0-0.497 0.403-0.9 0.9-0.9s0.9 0.403 0.9 0.9v0 2.7c0 0.497-0.403 0.9-0.9 0.9v0zM2.997 21.291c-0.497 0-0.9-0.403-0.9-0.9v0-2.7c0-0.497 0.403-0.9 0.9-0.9s0.9 0.403 0.9 0.9v0 2.7c0 0.497-0.403 0.9-0.9 0.9v0zM27.681 20.238c-0.497 0-0.9-0.403-0.9-0.9v0-2.7c0-0.497 0.403-0.9 0.9-0.9s0.9 0.403 0.9 0.9v0 2.7c0 0.497-0.403 0.9-0.9 0.9v0zM2.997 14.992c-0.497 0-0.9-0.403-0.9-0.9v0-2.7c0-0.497 0.403-0.9 0.9-0.9s0.9 0.403 0.9 0.9v0 2.7c0 0.497-0.403 0.9-0.9 0.9v0zM27.681 13.939c-0.497 0-0.9-0.403-0.9-0.9v0-2.7c0-0.497 0.403-0.9 0.9-0.9s0.9 0.403 0.9 0.9v0 2.7c0 0.497-0.403 0.9-0.9 0.9v0zM2.997 8.693c-0.497 0-0.9-0.403-0.9-0.9v0-2.7c0-0.001 0-0.002 0-0.004 0-0.331 0.179-0.621 0.446-0.777l0.004-0.002c-0.269-0.158-0.448-0.445-0.45-0.774v-0c0-0.497 0.403-0.9 0.9-0.9v0h2.7c0.497 0 0.9 0.403 0.9 0.9s-0.403 0.9-0.9 0.9h-2.097c0.177 0.164 0.287 0.398 0.288 0.657v2.7c0 0 0 0 0 0 0 0.494-0.398 0.895-0.89 0.9h-0zM27.681 7.64c-0.497 0-0.9-0.403-0.9-0.9v0-2.7c0-0.497 0.403-0.9 0.9-0.9s0.9 0.403 0.9 0.9v0 2.7c0 0.497-0.403 0.9-0.9 0.9v0zM24.594 4.436h-2.7c-0.497 0-0.9-0.403-0.9-0.9s0.403-0.9 0.9-0.9v0h2.7c0.497 0 0.9 0.403 0.9 0.9s-0.403 0.9-0.9 0.9v0zM18.295 4.436h-2.7c-0.497 0-0.9-0.403-0.9-0.9s0.403-0.9 0.9-0.9v0h2.7c0.497 0 0.9 0.403 0.9 0.9s-0.403 0.9-0.9 0.9v0zM11.995 4.436h-2.7c-0.497 0-0.9-0.403-0.9-0.9s0.403-0.9 0.9-0.9v0h2.7c0.497 0 0.9 0.403 0.9 0.9s-0.403 0.9-0.9 0.9v0z"></path>
<path d="M28.976 31.937c-0.234-0.003-0.445-0.095-0.603-0.243l0 0-4.58-4.238-2.277 3.348c-0.165 0.234-0.434 0.386-0.738 0.386-0.041 0-0.081-0.003-0.121-0.008l0.005 0c-0.341-0.042-0.621-0.27-0.736-0.579l-0.002-0.006-5.48-15.433c-0.035-0.092-0.055-0.198-0.055-0.309 0-0.497 0.403-0.9 0.9-0.9 0.113 0 0.222 0.021 0.322 0.059l-0.006-0.002 15.739 5.732c0.325 0.118 0.56 0.41 0.594 0.761l0 0.004c0.002 0.024 0.003 0.051 0.003 0.079 0 0.329-0.177 0.617-0.44 0.774l-0.004 0.002-3.654 2.16 4.202 4.292c0.154 0.161 0.249 0.38 0.249 0.621s-0.095 0.46-0.249 0.621l0-0-2.412 2.592c-0.164 0.177-0.398 0.287-0.657 0.288h-0zM23.64 25.197c0.237 0.001 0.452 0.093 0.612 0.243l-0-0 4.679 4.337 1.224-1.305-4.4-4.499c-0.16-0.162-0.259-0.386-0.259-0.632 0-0.041 0.003-0.080 0.008-0.119l-0 0.005c0.038-0.281 0.2-0.517 0.428-0.655l0.004-0.002 3.006-1.8-12.157-4.409 4.247 11.96 1.863-2.7c0.147-0.212 0.378-0.358 0.644-0.387l0.004-0z"></path>
</symbol>
<symbol id="icon-pdf" viewBox="0 0 29 32">
<path d="M25.074 30.227h-22.796c-0.004 0-0.008 0-0.013 0-0.536 0-0.971-0.435-0.971-0.971 0-0 0-0 0-0v0-26.576c0.004-0.535 0.436-0.967 0.971-0.971h17.211c0.276 0 0.524 0.117 0.699 0.304l0 0.001 5.605 5.871c0.161 0.168 0.261 0.396 0.265 0.646v20.713c0 0.004 0 0.008 0 0.013 0 0.536-0.435 0.971-0.971 0.971-0 0-0 0-0 0v0zM3.236 28.285h20.867v-19.34l-5.049-5.295h-15.819z"></path>
<path d="M24.835 9.262h-5.612c-0.536 0-0.971-0.435-0.971-0.971v0-5.612c0-0.536 0.435-0.97 0.971-0.97 0.268 0 0.51 0.109 0.686 0.284v0l5.612 5.612c0.175 0.174 0.283 0.414 0.283 0.68 0 0.135-0.028 0.264-0.079 0.381l0.002-0.006c-0.149 0.355-0.492 0.6-0.893 0.602h-0zM20.194 7.32h2.298l-2.298-2.298z"></path>
<path d="M6.207 16.828h1.56c1.172 0 2.006 0.401 2.006 1.586s-0.835 1.67-1.974 1.67h-0.764v1.987h-0.828zM7.748 19.417c0.841 0 1.236-0.317 1.236-1.010s-0.434-0.919-1.295-0.919h-0.654v1.942z"></path>
<path d="M11.65 16.828h1.359c1.612 0 2.524 0.893 2.524 2.589s-0.913 2.641-2.485 2.641h-1.398zM12.945 21.398c1.126 0 1.728-0.647 1.728-1.942s-0.602-1.942-1.728-1.942h-0.479v3.884z"></path>
<path d="M17.476 16.828h3.1v0.693h-2.265v1.605h1.942v0.693h-1.942v2.252h-0.835z"></path>
</symbol>
<symbol id="icon-upfile" viewBox="0 0 28 32">
<path d="M26.19 31.053h-23.916c-0.006 0-0.013 0-0.020 0-0.415 0-0.751-0.336-0.751-0.751 0-0.009 0-0.018 0-0.027l-0 0.001v-27.878c0-0.415 0.336-0.751 0.751-0.751v0h18.031c0.002 0 0.004-0 0.006-0 0.211 0 0.4 0.088 0.535 0.23l0 0 5.905 6.166c0.126 0.13 0.205 0.306 0.21 0.5l0 0.001v21.732c0 0.007 0 0.016 0 0.025 0 0.415-0.336 0.751-0.751 0.751-0 0-0 0-0 0h0zM3.005 29.551h22.434v-20.691l-5.449-5.71h-16.984z"></path>
<path d="M25.935 9.015h-5.9c-0.415 0-0.751-0.336-0.751-0.751v0-5.865c0-0.001 0-0.003 0-0.004 0-0.415 0.336-0.751 0.751-0.751 0.207 0 0.395 0.084 0.531 0.22v0l5.9 5.885c0.127 0.134 0.205 0.316 0.205 0.516 0 0.41-0.328 0.743-0.735 0.751h-0.001zM20.801 7.513h3.321l-3.321-3.301z"></path>
<path d="M14.194 25.208c-0.415 0-0.751-0.336-0.751-0.751v0-12.341c0-0.415 0.336-0.751 0.751-0.751s0.751 0.336 0.751 0.751v0 12.341c0 0.415-0.336 0.751-0.751 0.751v0z"></path>
<path d="M17.165 15.842c-0.207-0.002-0.394-0.086-0.531-0.22l0 0-2.439-2.444-2.444 2.444c-0.138 0.147-0.333 0.239-0.55 0.239-0.415 0-0.751-0.336-0.751-0.751 0-0.217 0.092-0.412 0.239-0.549l0-0 2.975-2.975c0.136-0.135 0.324-0.218 0.531-0.218s0.394 0.083 0.531 0.218l2.975 2.975c0.135 0.136 0.218 0.324 0.218 0.531s-0.083 0.394-0.218 0.531l0-0c-0.138 0.136-0.327 0.22-0.536 0.22h-0z"></path>
</symbol>
<symbol id="icon-font" viewBox="0 0 34 32">
<path d="M15.505 6.929h3.447l4.706 14.668h-3.069l-1.026-3.771h-4.751l-1.026 3.771h-2.988zM15.442 15.559h3.456l-0.441-1.602c-0.45-1.521-0.846-3.204-1.269-4.787h-0.090c-0.369 1.602-0.81 3.267-1.242 4.787z"></path>
<path d="M10.394 25.062v-0.981h13.687v0.981z"></path>
</symbol>
<symbol id="icon-bold" viewBox="0 0 32 32">
<path d="M22.121 15.145c1.172-1.392 1.879-3.188 1.879-5.145 0-4.411-3.589-8-8-8h-10v28h12c4.411 0 8-3.589 8-8 0-2.905-1.556-5.453-3.879-6.855zM12 6h3.172c1.749 0 3.172 1.794 3.172 4s-1.423 4-3.172 4h-3.172v-8zM16.969 26h-4.969v-8h4.969c1.827 0 3.313 1.794 3.313 4s-1.486 4-3.313 4z"></path>
</symbol>
<symbol id="icon-underline" viewBox="0 0 32 32">
<path d="M22 2h4v13c0 4.971-4.477 9-10 9s-10-4.029-10-9v-13h4v13c0 1.255 0.57 2.459 1.605 3.391 1.153 1.038 2.714 1.609 4.395 1.609s3.242-0.572 4.395-1.609c1.035-0.931 1.605-2.136 1.605-3.391v-13zM6 26h20v4h-20z"></path>
</symbol>
<symbol id="icon-italic" viewBox="0 0 32 32">
<path d="M28 2v2h-4l-10 24h4v2h-14v-2h4l10-24h-4v-2z"></path>
</symbol>
<symbol id="icon-strikethrough" viewBox="0 0 32 32">
<path d="M32 16v2h-7.328c0.86 1.203 1.328 2.584 1.328 4 0 2.215-1.146 4.345-3.143 5.843-1.855 1.391-4.29 2.157-6.857 2.157s-5.002-0.766-6.857-2.157c-1.998-1.498-3.143-3.628-3.143-5.843h4c0 2.168 2.748 4 6 4s6-1.832 6-4c0-2.168-2.748-4-6-4h-16v-2h9.36c-0.073-0.052-0.146-0.104-0.217-0.157-1.998-1.498-3.143-3.628-3.143-5.843s1.146-4.345 3.143-5.843c1.855-1.391 4.29-2.157 6.857-2.157s5.002 0.766 6.857 2.157c1.997 1.498 3.143 3.628 3.143 5.843h-4c0-2.168-2.748-4-6-4s-6 1.832-6 4c0 2.168 2.748 4 6 4 2.468 0 4.814 0.709 6.64 2h9.36z"></path>
</symbol>
<symbol id="icon-paragraph-left" viewBox="0 0 32 32">
<path d="M0 2h32v4h-32zM0 8h20v4h-20zM0 20h20v4h-20zM0 14h32v4h-32zM0 26h32v4h-32z"></path>
</symbol>
</defs>
</svg>
